#!OML:ASF F:\VICON\USERDATA\INSTALL\rory3\rory3.ASF
:FULLY-SPECIFIED
:DEGREES
44
root 0.49015394953627867 17.78358588028016 21.82931199135969 -2.518797260614975 -4.701578730134538 -4.12902850989251
lfemur -22.544479655283126 -3.5270270418405065 -18.21295463106301
ltibia 21.17542344413022
lfoot -2.8707678830711223 -2.3677380587150285
ltoes -0.8914524824059744
rfemur 9.188609110991985 4.472533060986651 27.679308274820116
rtibia 45.23773606234906
rfoot 5.205774305989424 3.037037409581952
rtoes 2.912147062180056
lowerback 8.731909537598845 3.0858269895787442 4.6707169577976515
upperback 0.06377509423180522 4.575733158038591 0.7144263997531866
thorax -4.667789003357321 2.173967510396289 -2.3544669864007264
lowerneck -16.836297654544165 -3.522109809632601 -1.637295849744783
upperneck 21.076449593437296 -4.739903745343376 1.6842952308832397
head 9.508745430522819 -2.1526795500985725 0.1915840518022773
lclavicle -3.496845888025055e-15 -8.826808781957698e-16
lhumerus -39.98206659335065 9.043836834603526 81.0585766380186
lradius 18.004888633333408
lwrist -1.443559577696722
lhand -24.27135181819098 25.72752097544175
lfingers 7.1250199999999975
lthumb 2.215146510794737 55.69305920219204
rclavicle -3.496845888025055e-15 -8.826808781957698e-16
rhumerus -24.56109191829732 -13.733381573127534 -81.9097962644928
rradius 28.661832358592278
rwrist 2.492764520050279
rhand -18.39869419748806 23.358844003780106
rfingers 7.1250199999999975
rthumb 7.885473695770491 -6.539780438202675
45
root 0.6356841941136112 17.85522952156008 23.91342901311097 -3.294417729476991 -4.852033078248922 -2.237701130743732
lfemur -18.881881561781285 -3.0097741080251224 -21.05172530629633
ltibia 24.984967803773184
lfoot -4.534291968418062 -2.11640277609785
ltoes 0.8624136813612044
rfemur 2.981143877462264 3.3605045000899594 24.713934285038395
rtibia 58.39700197950104
rfoot 13.787294415702709 1.5458365897977897
rtoes 10.43151497845332
lowerback 9.126969827654396 3.0449301633370216 3.062338772201808
upperback 0.16860828004685088 4.34450583826861 0.3690319777248239
thorax -4.8014006977684955 2.090690751817973 -1.697410500169625
lowerneck -16.772667017855607 -3.3737466032197903 -1.7075619829999928
upperneck 21.14682940319555 -4.534790488551837 1.7291959422822905
head 9.539204411327685 -2.0664252987166476 0.2491584813714751
lclavicle -2.933880618386144e-15 -5.071764075583348e-16
lhumerus -39.249734234386636 8.952719628550035 81.16990767931773
lradius 18.382715651991692
lwrist 0.3113784303427689
lhand -24.79966860732477 25.4137857182668
lfingers 7.1250199999999975
lthumb 1.704903247094855 55.37654159378808
rclavicle -2.933880618386144e-15 -5.071764075583348e-16
rhumerus -25.458688438814285 -15.48772079582751 -81.3858327775665
rradius 27.62227038666051
rwrist 3.9769213965441375
rhand -18.026208298475854 22.798836701571016
rfingers 7.1250199999999975
rthumb 8.244997931088472 -7.105989129510583
46
root 0.7322912416884897 17.913845480777848 25.214250819046327 -3.9122259574658003 -5.071761865760704 -0.6389041186310442
lfemur -14.863783670628052 -3.084480188459759 -23.31284766316144
ltibia 25.98641722837474
lfoot -7.202300527319062 -0.04399600367877532
ltoes 1.7692103322409367
rfemur -4.708087890465531 2.01339287448668 22.287311989808817
rtibia 69.92356120862127
rfoot 14.644664552658933 -1.905402102517864
rtoes 14.644460036899082
lowerback 9.573006285687557 2.8157348663660478 1.4929224798019896
upperback 0.367844264551289 3.868249437492465 0.15143887946129797
thorax -4.902122980190837 1.887745065282203 -0.9870437286329256
lowerneck -16.761949092248614 -3.112959125586738 -1.7305545034543257
upperneck 21.053331385502407 -4.161920039586071 1.6273415602631438
head 9.510133779120737 -1.9173061811908467 0.2803359731742893
lclavicle -2.6986645040089934e-15 -3.502844854016995e-16
lhumerus -37.86544517060543 7.800351903250817 81.740893486576
lradius 19.1971128656051
lwrist 2.2252972839287573
lhand -26.132181245403057 23.916013782625367
lfingers 7.1250199999999975
lthumb 0.41804016917566156 53.88154281062223
rclavicle -2.6986645040089934e-15 -3.502844854016995e-16
rhumerus -26.045833719945932 -17.17990228079503 -80.95836758587683
rradius 26.33378560919859
rwrist 5.715226648267707
rhand -17.634455794787016 22.21252620414051
rfingers 7.1250199999999975
rthumb 8.623120343999558 -7.6830785118722815
47
root 0.7652666735174853 17.94616433683313 26.108478411636575 -4.321286974338863 -4.770754149410701 0.4136233859501437
lfemur -11.100456903342849 -3.446899084134933 -25.036927218970572
ltibia 25.93416346090232
lfoot -9.927691082065282 2.0550153295821527
ltoes 2.0014538482994104
rfemur -12.669799486340201 0.4827018269547816 20.82796229680226
rtibia 77.10021066185435
rfoot 8.262840996245709 -5.005023862232157
rtoes 13.802622782087822
lowerback 9.91345146561406 2.2804447079444143 0.20446229433784935
upperback 0.5870926296018052 3.0128461063558727 0.12435481336966947
thorax -4.943191253869675 1.4950261630872157 -0.2447050189522989
lowerneck -16.69667087989756 -2.847312621987283 -1.7902207221074709
upperneck 20.955067700788177 -3.768446545043707 1.4301069966147106
head 9.455583994060515 -1.7657935397771536 0.30043688079251907
lclavicle -2.762208235421302e-15 -3.926689038010479e-16
lhumerus -35.78018073534287 5.948854629976879 82.3490937374465
lradius 20.03113264536117
lwrist 2.9675396034843287
lhand -27.071531179919713 22.638128674578255
lfingers 7.1250199999999975
lthumb -0.4891092285669358 52.608082359523046
rclavicle -2.762208235421302e-15 -3.926689038010479e-16
rhumerus -26.609830255261596 -18.668924461148148 -80.70035644063539
rradius 25.236798562669623
rwrist 7.023453086980905
rhand -17.328036959441295 21.774346079142394
rfingers 7.1250199999999975
rthumb 8.918824311369837 -8.095110847490952
48
root 0.7717608186562479 17.9470118363494 26.802902016638868 -4.4536000565232845 -3.9351153131475973 1.099906190767817
lfemur -7.482258745849154 -3.7764573796203873 -26.42876916845228
ltibia 26.058962477303684
lfoot -12.371866775273226 3.364353660401761
ltoes 2.1095943301264737
rfemur -20.12818509376773 -0.7668697653812382 20.18968878426033
rtibia 78.527204832905
rfoot -0.45763407883858154 -6.6038466020954845
rtoes 10.070136863147647
lowerback 10.171671411303247 1.5301960006448998 -0.837591737695216
upperback 0.7439928904509976 1.8991840220061444 0.2415638052580722
thorax -4.973502953470184 0.970584135039668 0.5414501216408584
lowerneck -16.595948163536935 -2.6725494387837427 -1.99052347153587
upperneck 20.944699921051726 -3.4870152845587694 1.2927367814853057
head 9.418731988187053 -1.6630276891535463 0.3458807553160601
lclavicle -2.8537992606030712e-15 -4.537612011840838e-16
lhumerus -32.98746784715403 3.5776648829453643 82.78926183934583
lradius 20.97396151398206
lwrist 3.1203467551519752
lhand -27.31209444755664 22.393662400050445
lfingers 7.1250199999999975
lthumb -0.7214161948406582 52.36772542616614
rclavicle -2.8537992606030712e-15 -4.537612011840838e-16
rhumerus -27.390554061694516 -19.681256546877215 -80.50625000544426
rradius 24.670900373333115
rwrist 7.42141920677104
rhand -17.204730679404676 21.542078571992445
rfingers 7.1250199999999975
rthumb 9.037761261972683 -8.312858411690154
49
root 0.7737183722999912 17.917994587430304 27.396490936045147 -4.267395618304668 -2.940838575131913 1.6860114022356703
lfemur -3.9596866860061883 -3.8480194974832025 -27.516810691769244
ltibia 25.916380817638775
lfoot -14.578402414218573 4.136534674215273
ltoes 2.381054974070685
rfemur -26.21436519149487 -1.462070796194057 19.877564455312594
rtibia 74.29705228964299
rfoot -6.775001847335006 -7.406376726171655
rtoes 6.121827650971044
lowerback 10.378945419802799 0.7969967609964952 -1.770295188230776
upperback 0.8149239955188171 0.8278518034042863 0.4211537479113956
thorax -5.019391186887363 0.46330892780279154 1.3327359091498203
lowerneck -16.571708633181498 -2.6251235115038085 -2.3249279195392174
upperneck 20.914254158353405 -3.3801335538680664 1.3444491960218046
head 9.391071561504196 -1.6276200720220326 0.4324839203964338
lclavicle -2.8621540111210166e-15 -4.593339220408836e-16
lhumerus -29.87110394132764 0.7774811834275217 83.05937265707006
lradius 22.097201237469758
lwrist 3.5760406720023803
lhand -27.25176890687939 22.71944969591104
lfingers 7.1250199999999975
lthumb -0.6631553327098713 52.698028699374426
rclavicle -2.8621540111210166e-15 -4.593339220408836e-16
rhumerus -28.28199227215793 -19.912520930908094 -80.32973228401838
rradius 24.661496673658363
rwrist 6.76534652504935
rhand -17.257443710764115 21.578586356170185
rfingers 7.1250199999999975
rthumb 8.986839106255797 -8.294707118608859
